<?xml version="1.0" encoding="utf-8"?><svg xml:space="preserve" viewBox="0 0 100 100" y="0" x="0" xmlns="http://www.w3.org/2000/svg" id="圖層_1" version="1.1" width="200px" height="200px" xmlns:xlink="http://www.w3.org/1999/xlink" style="width:100%;height:100%;background-size:initial;background-repeat-y:initial;background-repeat-x:initial;background-position-y:initial;background-position-x:initial;background-origin:initial;background-color:initial;background-clip:initial;background-attachment:initial;animation-play-state:paused" ><g class="ldl-scale" style="transform-origin:50% 50%;transform:rotate(0deg) scale(0.8, 0.8);animation-play-state:paused" ><g style="animation-play-state:paused" ><path stroke-miterlimit="10" stroke-width="3.5" stroke="#333" fill="#e0e0e0" d="M60.032 32.856l-6.336-3.658a5.298 5.298 0 0 0-7.237 1.939L20.684 75.778a5.298 5.298 0 0 0 1.939 7.237l6.336 3.658a5.298 5.298 0 0 0 7.237-1.939L61.97 40.092a5.296 5.296 0 0 0-1.938-7.236z" style="stroke:rgb(51, 51, 51);fill:rgb(224, 224, 224);animation-play-state:paused" ></path></g>
<g style="animation-play-state:paused" ><path fill="#333" d="M38.586 38.799a2.09 2.09 0 0 1 1.498-3.851l24.454 5.412a2.09 2.09 0 0 1-.905 4.081l-24.454-5.412a2.084 2.084 0 0 1-.593-.23z" style="fill:rgb(51, 51, 51);animation-play-state:paused" ></path></g>
<g style="animation-play-state:paused" ><path fill="#333" d="M33.81 47.073a2.09 2.09 0 0 1 1.498-3.851l24.454 5.412a2.09 2.09 0 0 1-.905 4.081l-24.454-5.412a2.061 2.061 0 0 1-.593-.23z" style="fill:rgb(51, 51, 51);animation-play-state:paused" ></path></g>
<g style="animation-play-state:paused" ><path fill="#333" d="M29.033 55.346a2.09 2.09 0 0 1 1.498-3.851l24.454 5.412a2.09 2.09 0 0 1-.905 4.081l-24.454-5.412a2.073 2.073 0 0 1-.593-.23z" style="fill:rgb(51, 51, 51);animation-play-state:paused" ></path></g>
<g style="animation-play-state:paused" ><path fill="#333" d="M24.256 63.62a2.09 2.09 0 0 1 1.498-3.851l24.454 5.412a2.09 2.09 0 0 1-.905 4.081L24.849 63.85a2.073 2.073 0 0 1-.593-.23z" style="fill:rgb(51, 51, 51);animation-play-state:paused" ></path></g>
<g style="animation-play-state:paused" ><path fill="#333" d="M19.479 71.894a2.09 2.09 0 0 1 1.498-3.851l24.454 5.412a2.09 2.09 0 0 1-.905 4.081l-24.454-5.412a2.145 2.145 0 0 1-.593-.23z" style="fill:rgb(51, 51, 51);animation-play-state:paused" ></path></g>
<g style="animation-play-state:paused" ><path fill="#333" d="M14.703 80.167a2.09 2.09 0 0 1 1.498-3.851l24.454 5.412a2.09 2.09 0 0 1-.905 4.081l-24.454-5.412a2.061 2.061 0 0 1-.593-.23z" style="fill:rgb(51, 51, 51);animation-play-state:paused" ></path></g>
<g style="animation-play-state:paused" ><path stroke-miterlimit="10" stroke-width="3.5" stroke="#333" fill="#e0e0e0" d="M73.142 50.388L31.956 26.609a6.089 6.089 0 0 1-2.229-8.317l2.452-4.247a6.089 6.089 0 0 1 8.317-2.229l41.186 23.779a6.089 6.089 0 0 1 2.229 8.317l-2.452 4.247a6.088 6.088 0 0 1-8.317 2.229z" style="stroke:rgb(51, 51, 51);fill:rgb(224, 224, 224);animation-play-state:paused" ></path></g>
<path opacity=".2" d="M82.492 34.195l-20.593-11.89-36.916 63.94 3.168 1.829c3.302 1.907 7.54.771 9.447-2.531l.108-.187 2.044.452a2.09 2.09 0 0 0 .905-4.081l-.757-.168 2.585-4.478 2.045.452a2.09 2.09 0 1 0 .905-4.081l-.757-.168 2.585-4.478 2.045.452a2.09 2.09 0 1 0 .905-4.081l-.757-.168 2.585-4.478 2.045.452a2.09 2.09 0 0 0 .905-4.081l-.757-.168 2.585-4.478 2.045.452a2.09 2.09 0 0 0 .905-4.081l-.757-.168 1.894-3.28 11.436 6.603c3.679 2.124 8.401.859 10.526-2.821l2.452-4.247c2.118-3.673.853-8.395-2.826-10.519z" style="animation-play-state:paused" ></path>
<path d="M37.753 16.991l7.47 4.314" stroke-miterlimit="10" stroke-linecap="round" stroke-width="3.5" stroke="#fff" fill="none" style="stroke:rgb(255, 255, 255);animation-play-state:paused" ></path>
<path d="M50.026 24.077l1.467.847" stroke-miterlimit="10" stroke-linecap="round" stroke-width="3.5" stroke="#fff" fill="none" style="stroke:rgb(255, 255, 255);animation-play-state:paused" ></path>
<metadata xmlns:d="https://loading.io/stock/" style="animation-play-state:paused" ><d:name style="animation-play-state:paused" >screw</d:name>
<d:tags style="animation-play-state:paused" >screw,bolt,fastener,fix,hand tool,workshop,build,construction,repair</d:tags>
<d:license style="animation-play-state:paused" >by</d:license>
<d:slug style="animation-play-state:paused" >736k3m</d:slug></metadata></g><!-- generated by https://loading.io/ --></svg>